<?xml version="1.0" encoding="UTF-8" standalone="no" ?>
<!DOCTYPE svg PUBLIC "-//W3C//DTD SVG 1.1//EN" "http://www.w3.org/Graphics/SVG/1.1/DTD/svg11.dtd">
<svg xmlns="http://www.w3.org/2000/svg" xmlns:xlink="http://www.w3.org/1999/xlink" version="1.1" width="400" height="400" viewBox="0 0 400 400" xml:space="preserve">
<desc>Created with Fabric.js 3.6.2</desc>
<defs>
</defs>
<g transform="matrix(7.14 0 0 7.14 200 278.57)" id="work-business-solid-idea"  >
<path style="stroke: rgb(255,125,168); stroke-width: 1; stroke-dasharray: none; stroke-linecap: butt; stroke-dashoffset: 0; stroke-linejoin: miter; stroke-miterlimit: 4; fill: transparent; fill-rule: nonzero; opacity: 1;"  transform=" translate(-14, -26)" d="M 17 25 H 11 a 1 1 0 0 0 0 2 h 6 a 1 1 0 0 0 0 -2 Z" stroke-linecap="round" />
</g>
<g transform="matrix(7.14 0 0 7.14 200 300)" id="work-business-solid-idea"  >
<path style="stroke: rgb(255,125,168); stroke-width: 1; stroke-dasharray: none; stroke-linecap: butt; stroke-dashoffset: 0; stroke-linejoin: miter; stroke-miterlimit: 4; fill: transparent; fill-rule: nonzero; opacity: 1;"  transform=" translate(-14, -29)" d="M 17 28 H 11 a 1 1 0 0 0 0 2 h 6 a 1 1 0 0 0 0 -2 Z" stroke-linecap="round" />
</g>
<g transform="matrix(7.14 0 0 7.14 200 107.14)" id="work-business-solid-idea"  >
<path style="stroke: rgb(255,125,168); stroke-width: 1; stroke-dasharray: none; stroke-linecap: butt; stroke-dashoffset: 0; stroke-linejoin: miter; stroke-miterlimit: 4; fill: transparent; fill-rule: nonzero; opacity: 1;"  transform=" translate(-14, -2)" d="M 14 4 a 0.99974 0.99974 0 0 0 1 -1 V 1 a 1 1 0 0 0 -2 0 V 3 A 0.99974 0.99974 0 0 0 14 4 Z" stroke-linecap="round" />
</g>
<g transform="matrix(7.14 0 0 7.14 114.29 192.86)" id="work-business-solid-idea"  >
<path style="stroke: rgb(255,125,168); stroke-width: 1; stroke-dasharray: none; stroke-linecap: butt; stroke-dashoffset: 0; stroke-linejoin: miter; stroke-miterlimit: 4; fill: transparent; fill-rule: nonzero; opacity: 1;"  transform=" translate(-2, -14)" d="M 3 13 H 1 a 1 1 0 0 0 0 2 H 3 a 1 1 0 0 0 0 -2 Z" stroke-linecap="round" />
</g>
<g transform="matrix(7.14 0 0 7.14 137.52 130.37)" id="work-business-solid-idea"  >
<path style="stroke: rgb(255,125,168); stroke-width: 1; stroke-dasharray: none; stroke-linecap: butt; stroke-dashoffset: 0; stroke-linejoin: miter; stroke-miterlimit: 4; fill: transparent; fill-rule: nonzero; opacity: 1;"  transform=" translate(-5.25, -5.25)" d="M 6.707 6.707 a 0.99962 0.99962 0 0 0 0 -1.41406 l -1.5 -1.5 A 0.99989 0.99989 0 0 0 3.793 5.207 l 1.5 1.5 a 0.99963 0.99963 0 0 0 1.41406 0 Z" stroke-linecap="round" />
</g>
<g transform="matrix(7.14 0 0 7.14 285.71 192.86)" id="work-business-solid-idea"  >
<path style="stroke: rgb(255,125,168); stroke-width: 1; stroke-dasharray: none; stroke-linecap: butt; stroke-dashoffset: 0; stroke-linejoin: miter; stroke-miterlimit: 4; fill: transparent; fill-rule: nonzero; opacity: 1;"  transform=" translate(-26, -14)" d="M 27 13 H 25 a 1 1 0 0 0 0 2 h 2 a 1 1 0 0 0 0 -2 Z" stroke-linecap="round" />
</g>
<g transform="matrix(7.14 0 0 7.14 258.91 130.37)" id="work-business-solid-idea"  >
<path style="stroke: rgb(255,125,168); stroke-width: 1; stroke-dasharray: none; stroke-linecap: butt; stroke-dashoffset: 0; stroke-linejoin: miter; stroke-miterlimit: 4; fill: transparent; fill-rule: nonzero; opacity: 1;"  transform=" translate(-22.25, -5.25)" d="M 23.707 3.793 a 0.99962 0.99962 0 0 0 -1.41406 0 l -1.5 1.5 A 0.99989 0.99989 0 1 0 22.207 6.707 l 1.5 -1.5 A 0.99962 0.99962 0 0 0 23.707 3.793 Z" stroke-linecap="round" />
</g>
<g transform="matrix(7.14 0 0 7.14 200 197.62)" id="work-business-solid-idea"  >
<path style="stroke: rgb(255,125,168); stroke-width: 1; stroke-dasharray: none; stroke-linecap: butt; stroke-dashoffset: 0; stroke-linejoin: miter; stroke-miterlimit: 4; fill: transparent; fill-rule: nonzero; opacity: 1;"  transform=" translate(-14, -14.67)" d="M 14 5.3335 A 8.50145 8.50145 0 0 0 9.667 21.14844 V 23 a 0.99974 0.99974 0 0 0 1 1 h 6.666 a 0.99974 0.99974 0 0 0 1 -1 V 21.14844 A 8.50145 8.50145 0 0 0 14 5.3" stroke-linecap="round" />
</g>
</svg>